<svg width="1033" height="275" viewBox="0 0 1033 275" fill="none" xmlns="http://www.w3.org/2000/svg">
<path d="M284.564 200.515C264.001 200.515 248.104 195.331 236.873 184.963C225.814 174.596 220.285 158.958 220.285 138.05V61.8489H261.496V134.94C261.496 140.297 262.187 145.135 263.569 149.455C265.125 153.602 267.63 156.971 271.086 159.563C274.542 161.982 279.034 163.192 284.564 163.192C290.784 163.192 295.45 161.809 298.56 159.045C301.67 156.28 303.657 152.738 304.521 148.418C305.558 143.925 306.076 139.433 306.076 134.94V61.8489H347.028V138.05C347.028 159.995 341.412 175.892 330.181 185.741C319.122 195.59 303.916 200.515 284.564 200.515Z" fill="white"/>
<path d="M362.81 198.441V61.8489H404.021V198.441H362.81ZM383.545 50.4446C375.942 50.4446 369.808 48.1983 365.143 43.7057C360.65 39.2131 358.404 33.3382 358.404 26.0809C358.404 18.6508 360.823 12.6031 365.661 7.93767C370.5 3.27227 376.547 0.939575 383.805 0.939575C390.716 0.939575 396.591 3.18587 401.429 7.67847C406.268 12.1711 408.687 18.2188 408.687 25.8217C408.687 33.2518 406.354 39.2131 401.689 43.7057C397.023 48.1983 390.975 50.4446 383.545 50.4446Z" fill="white"/>
<path d="M481.97 200.515C468.147 200.515 456.224 197.75 446.202 192.221C436.18 186.519 428.405 178.397 422.875 167.857C417.519 157.317 414.84 144.876 414.84 130.534C414.84 115.847 417.605 103.233 423.134 92.6923C428.837 81.9792 436.785 73.7716 446.98 68.0694C457.174 62.1945 469.27 59.257 483.266 59.257C494.843 59.257 505.124 61.4169 514.11 65.7367C523.268 69.8837 530.525 75.9315 535.881 83.8799C541.411 91.8284 544.521 101.591 545.212 113.168H505.297C503.915 107.639 501.237 103.578 497.262 100.986C493.461 98.2217 488.795 96.8394 483.266 96.8394C476.182 96.8394 470.566 98.6537 466.419 102.282C462.445 105.738 459.594 110.058 457.866 115.242C456.311 120.426 455.533 125.523 455.533 130.534C455.533 136.063 456.397 141.333 458.125 146.344C460.026 151.355 462.963 155.416 466.937 158.526C471.084 161.637 476.354 163.192 482.748 163.192C488.623 163.192 493.547 161.809 497.522 159.045C501.669 156.28 504.347 152.219 505.556 146.863H546.508C545.99 158.613 542.707 168.462 536.659 176.41C530.784 184.359 523.095 190.406 513.591 194.553C504.088 198.528 493.547 200.515 481.97 200.515Z" fill="white"/>
<path d="M556.209 198.441V14.9358H597.42V112.131H612.972L644.074 61.8489H690.21L647.185 126.905L693.579 198.441H646.148L614.268 148.677H597.42V198.441H556.209Z" fill="white"/>
<path d="M699.35 198.441V14.9358H832.314V53.814H741.339V94.5067H817.54V132.867H741.339V198.441H699.35Z" fill="#7CE200"/>
<path d="M840.73 198.441V61.8489H881.941V198.441H840.73ZM861.465 50.4446C853.862 50.4446 847.728 48.1983 843.062 43.7057C838.57 39.2131 836.324 33.3382 836.324 26.0809C836.324 18.6508 838.743 12.6031 843.581 7.93767C848.419 3.27227 854.467 0.939575 861.724 0.939575C868.636 0.939575 874.511 3.18587 879.349 7.67847C884.187 12.1711 886.606 18.2188 886.606 25.8217C886.606 33.2518 884.273 39.2131 879.608 43.7057C874.943 48.1983 868.895 50.4446 861.465 50.4446Z" fill="#7CE200"/>
<path d="M885.502 198.441L932.934 128.72L888.094 61.8489H935.267L959.63 101.764L983.735 61.8489H1029.87L984.513 129.497L1032.98 198.441H985.29L958.335 156.194L931.12 198.441H885.502Z" fill="#7CE200"/>
<path fill-rule="evenodd" clip-rule="evenodd" d="M195.076 50.5681C204.76 66.4812 210.338 85.1685 210.338 105.159C210.338 132.706 200.895 156.63 183.561 175.379L157.921 145.308C166.988 133.995 171.263 120.785 171.263 105.159C171.263 82.48 159.839 62.4696 142.431 50.5681H195.076Z" fill="url(#paint0_linear_513_504)"/>
<path d="M128.739 108.032L100.007 136.189L135.06 172.391L100.007 171.242L74.7234 191.354C78.3628 197.292 89.549 208.249 93.6864 209.168C97.8238 210.087 122.035 210.317 135.06 210.317L100.007 247.094L128.739 274.677L212.636 191.354L128.739 108.032Z" fill="white"/>
<path fill-rule="evenodd" clip-rule="evenodd" d="M105.179 210.317C115.558 210.317 125.585 208.814 135.055 206.013L105.408 171.241C105.332 171.242 105.256 171.242 105.179 171.242C68.6827 171.242 39.0962 141.655 39.0962 105.159C39.0962 68.6618 68.6827 39.0753 105.179 39.0753C118.998 39.0753 131.825 43.3165 142.432 50.5682H195.076C176.625 20.2486 143.267 0 105.179 0C47.1021 0 0.020874 47.0812 0.020874 105.159C0.020874 163.236 47.1021 210.317 105.179 210.317Z" fill="white"/>
<defs>
<linearGradient id="paint0_linear_513_504" x1="176.385" y1="50.5681" x2="176.385" y2="175.379" gradientUnits="userSpaceOnUse">
<stop stop-color="white"/>
<stop offset="1" stop-color="white" stop-opacity="0"/>
</linearGradient>
</defs>
</svg>
